<?xml version="1.0" standalone="no"?>
<!DOCTYPE svg PUBLIC "-//W3C//DTD SVG 20010904//EN"
 "http://www.w3.org/TR/2001/REC-SVG-20010904/DTD/svg10.dtd">
<svg version="1.0" xmlns="http://www.w3.org/2000/svg"
 width="300.000000pt" height="53.000000pt" viewBox="0 0 300.000000 53.000000"
 preserveAspectRatio="xMidYMid meet">
<metadata>
Created by potrace 1.10, written by Peter Selinger 2001-2011
</metadata>
<g transform="translate(0.000000,53.000000) scale(0.100000,-0.100000)"
fill="#ffffff" stroke="none">
<path d="M38 507 c-16 -13 -28 -26 -28 -30 0 -4 47 -60 105 -125 58 -64 105
-121 105 -126 0 -6 -33 -40 -72 -77 l-73 -68 25 -28 c27 -30 42 -43 51 -43 11
0 204 182 207 196 2 7 -20 41 -49 74 -48 53 -55 58 -69 45 -21 -19 -34 -19
-49 -2 -8 11 -6 18 9 32 19 17 19 18 -1 44 -32 41 -120 131 -127 131 -4 -1
-19 -11 -34 -23z"/>
<path d="M232 487 l-22 -23 24 -23 c20 -19 27 -21 44 -10 17 10 23 10 37 -1
14 -12 14 -15 -5 -35 l-20 -21 65 -71 c36 -39 65 -79 65 -90 0 -10 -32 -47
-71 -82 l-70 -64 32 -33 c18 -19 38 -34 44 -34 18 0 205 181 205 199 0 10 -59
83 -132 164 -141 156 -156 166 -196 124z"/>
<path d="M820 307 c0 -75 -4 -117 -12 -125 -7 -7 -40 -12 -80 -12 l-68 0 0
-35 0 -35 89 0 c81 0 93 3 118 24 28 24 28 25 31 160 l4 136 -41 0 -41 0 0
-113z"/>
<path d="M1890 385 c0 -33 2 -35 35 -35 l35 0 0 -125 0 -125 41 0 40 0 -1 112
c-1 62 -1 119 -1 126 1 7 15 12 36 12 33 0 35 2 35 35 l0 35 -110 0 -110 0 0
-35z"/>
<path d="M950 350 l0 -40 76 0 c56 0 75 -3 72 -12 -3 -8 -27 -14 -59 -16 -73
-4 -99 -28 -99 -92 0 -70 26 -90 118 -90 40 0 72 4 72 10 0 5 -5 21 -12 35
-10 22 -17 25 -65 25 -40 0 -53 4 -53 15 0 12 13 15 61 15 l60 0 22 -50 c21
-48 23 -50 63 -50 l41 0 -43 108 c-23 59 -47 119 -54 134 -14 34 -55 48 -136
48 l-64 0 0 -40z"/>
<path d="M1160 386 c0 -12 65 -188 87 -234 l24 -52 50 0 49 0 0 35 c0 30 -3
35 -23 35 -34 0 -41 12 -78 121 l-34 99 -37 0 c-21 0 -38 -2 -38 -4z"/>
<path d="M1400 350 l0 -40 76 0 c56 0 75 -3 72 -12 -3 -8 -27 -14 -59 -16 -73
-4 -99 -28 -99 -92 0 -70 26 -90 118 -90 40 0 72 4 72 10 0 5 -5 21 -12 35
-10 22 -17 25 -65 25 -40 0 -53 4 -53 15 0 12 13 15 61 15 l60 0 22 -50 c21
-48 23 -50 63 -50 l41 0 -43 108 c-23 59 -47 119 -54 134 -14 34 -55 48 -136
48 l-64 0 0 -40z"/>
<path d="M1690 372 c-56 -28 -59 -56 -19 -159 l34 -88 3 80 c3 86 12 105 47
105 52 0 55 -5 55 -111 l0 -99 40 0 40 0 0 103 c0 61 -5 112 -13 127 -15 31
-71 60 -117 60 -19 0 -51 -8 -70 -18z"/>
<path d="M2140 245 l0 -145 35 0 35 0 0 145 0 145 -35 0 -35 0 0 -145z"/>
<path d="M2240 245 l0 -145 35 0 c34 0 35 1 35 41 l0 41 32 -31 c31 -31 81
-51 126 -51 18 0 22 5 22 34 0 32 -2 35 -42 41 -38 7 -88 42 -88 62 0 5 28 40
62 78 l62 70 -45 3 c-40 3 -47 0 -82 -37 -21 -23 -40 -41 -42 -41 -3 0 -5 18
-5 40 0 39 -1 40 -35 40 l-35 0 0 -145z"/>
<path d="M2510 291 c0 -119 10 -153 54 -176 46 -25 137 -17 171 15 24 22 25
29 25 142 l0 118 -35 0 -35 0 0 -94 c0 -117 -21 -148 -81 -116 -17 10 -19 22
-19 110 l0 100 -40 0 -40 0 0 -99z"/>
<path d="M2807 372 c-12 -13 -17 -37 -17 -75 0 -77 20 -97 96 -97 40 0 55 -3
52 -12 -3 -9 -30 -14 -76 -16 l-72 -3 0 -34 0 -35 83 0 c45 0 87 4 93 8 38 25
46 114 13 156 -18 22 -28 26 -76 26 -39 0 -54 4 -51 13 3 8 30 13 76 15 l72 3
0 34 0 35 -88 0 c-73 0 -92 -3 -105 -18z"/>
</g>
</svg>
