<?xml version="1.0" encoding="iso-8859-1"?>
<!-- Generator: Adobe Illustrator 19.0.0, SVG Export Plug-In . SVG Version: 6.00 Build 0)  -->
<svg version="1.1" id="Layer_1" xmlns="http://www.w3.org/2000/svg" xmlns:xlink="http://www.w3.org/1999/xlink" x="0px" y="0px"
	 viewBox="0 0 512 512" style="enable-background:new 0 0 512 512;" xml:space="preserve">
<g>
	<g>
		<path d="M256,37.647c-141.386,0-256,96.185-256,233.412c17.738,22.173,36.055,43.466,54.498,63.386
			C67.732,235.05,153.046,158.118,256,158.118s188.268,76.932,201.502,176.327c18.443-19.92,36.76-41.213,54.498-63.386
			C512,133.832,397.386,37.647,256,37.647z"/>
	</g>
</g>
<g>
	<g>
		<path d="M256,188.235c-95.49,0-173.176,77.687-173.176,173.176c0,0.825,0.021,1.646,0.032,2.468
			c15.529,15.459,30.977,29.743,46.08,42.565c7.546-63.437,61.633-112.798,127.065-112.798s119.519,49.361,127.066,112.797
			c15.101-12.821,30.551-27.106,46.078-42.564c0.011-0.822,0.032-1.643,0.032-2.468C429.176,265.922,351.49,188.235,256,188.235z"/>
	</g>
</g>
<g>
	<g>
		<path d="M256,323.765c-53.972,0-97.882,43.91-97.882,97.882c0,2.802,0.148,5.57,0.378,8.314
			c37.631,27.814,71.712,44.392,97.504,44.392s59.874-16.578,97.504-44.392c0.23-2.744,0.378-5.512,0.378-8.314
			C353.882,367.675,309.972,323.765,256,323.765z"/>
	</g>
</g>
<g>
</g>
<g>
</g>
<g>
</g>
<g>
</g>
<g>
</g>
<g>
</g>
<g>
</g>
<g>
</g>
<g>
</g>
<g>
</g>
<g>
</g>
<g>
</g>
<g>
</g>
<g>
</g>
<g>
</g>
</svg>
